<svg width="125" height="62" viewBox="0 0 125 62" fill="none" xmlns="http://www.w3.org/2000/svg">
<path d="M26.3317 45.7412C21.4953 45.7412 17.7336 49.1985 17.7336 53.6437C17.7336 58.0888 21.4953 61.5461 26.3317 61.5461C31.1681 61.5461 34.9299 58.0888 34.9299 53.6437C34.9299 49.1985 31.1681 45.7412 26.3317 45.7412ZM77.383 0.795959H73.084V10.4271H89.2055L77.383 0.795959ZM0.537333 55.1254H11.285C11.285 55.1254 11.8224 40.3083 27.4065 40.3083C38.9602 40.3083 40.841 55.1254 40.841 55.1254H67.7102V0.795959H0L0.537333 55.1254ZM102.103 45.7412C97.2662 45.7412 93.5045 49.1985 93.5045 53.6437C93.5045 58.0888 97.2662 61.5461 102.103 61.5461C106.939 61.5461 110.701 58.0888 110.701 53.6437C110.701 49.1985 106.67 45.7412 102.103 45.7412ZM91.8924 13.1436H73.084V55.1254H89.2055C89.2055 55.1254 87.056 42.7778 102.64 42.7778C114.462 42.7778 114.194 55.1254 114.194 55.1254H124.135L124.673 36.604L91.8924 13.1436ZM89.2055 45.2473H78.4579V40.3083H89.2055V45.2473ZM88.1307 36.357L77.383 30.4302V16.6009H88.1307L116.075 36.357H88.1307Z" fill="white" fill-opacity="0.4"/>
</svg>
